<mxfile host="app.diagrams.net" modified="2024-04-13T11:32:51.752Z" agent="Mozilla/5.0 (Windows NT 10.0; Win64; x64) AppleWebKit/537.36 (KHTML, like Gecko) Chrome/123.0.0.0 Safari/537.36" etag="po-eOofBySkYSxaNp6V8" version="24.2.3" type="device">
  <diagram id="C5RBs43oDa-KdzZeNtuy" name="Page-1">
    <mxGraphModel dx="3172" dy="1793" grid="1" gridSize="10" guides="1" tooltips="1" connect="1" arrows="1" fold="1" page="1" pageScale="1" pageWidth="827" pageHeight="1169" math="0" shadow="0">
      <root>
        <mxCell id="WIyWlLk6GJQsqaUBKTNV-0" />
        <mxCell id="WIyWlLk6GJQsqaUBKTNV-1" parent="WIyWlLk6GJQsqaUBKTNV-0" />
        <mxCell id="tMLlRhtM2XEq-jiwOCAZ-34" value="Client" style="swimlane;fontStyle=0;childLayout=stackLayout;horizontal=1;startSize=26;fillColor=none;horizontalStack=0;resizeParent=1;resizeParentMax=0;resizeLast=0;collapsible=1;marginBottom=0;whiteSpace=wrap;html=1;" vertex="1" parent="WIyWlLk6GJQsqaUBKTNV-1">
          <mxGeometry x="-1184" y="-375.5" width="140" height="52" as="geometry" />
        </mxCell>
        <mxCell id="tMLlRhtM2XEq-jiwOCAZ-38" value="&amp;lt;&amp;lt;interface&amp;gt;&amp;gt;&lt;div&gt;Duck&lt;/div&gt;" style="swimlane;fontStyle=0;childLayout=stackLayout;horizontal=1;startSize=39;fillColor=none;horizontalStack=0;resizeParent=1;resizeParentMax=0;resizeLast=0;collapsible=1;marginBottom=0;whiteSpace=wrap;html=1;" vertex="1" parent="WIyWlLk6GJQsqaUBKTNV-1">
          <mxGeometry x="-951" y="-378.5" width="140" height="65" as="geometry" />
        </mxCell>
        <mxCell id="tMLlRhtM2XEq-jiwOCAZ-39" value="+ Request(): void" style="text;strokeColor=none;fillColor=none;align=left;verticalAlign=top;spacingLeft=4;spacingRight=4;overflow=hidden;rotatable=0;points=[[0,0.5],[1,0.5]];portConstraint=eastwest;whiteSpace=wrap;html=1;" vertex="1" parent="tMLlRhtM2XEq-jiwOCAZ-38">
          <mxGeometry y="39" width="140" height="26" as="geometry" />
        </mxCell>
        <mxCell id="tMLlRhtM2XEq-jiwOCAZ-42" value="TurkeyAdapter" style="swimlane;fontStyle=0;childLayout=stackLayout;horizontal=1;startSize=26;fillColor=none;horizontalStack=0;resizeParent=1;resizeParentMax=0;resizeLast=0;collapsible=1;marginBottom=0;whiteSpace=wrap;html=1;" vertex="1" parent="WIyWlLk6GJQsqaUBKTNV-1">
          <mxGeometry x="-960" y="-230" width="140" height="52" as="geometry" />
        </mxCell>
        <mxCell id="tMLlRhtM2XEq-jiwOCAZ-43" value="+ Request(): void" style="text;strokeColor=none;fillColor=none;align=left;verticalAlign=top;spacingLeft=4;spacingRight=4;overflow=hidden;rotatable=0;points=[[0,0.5],[1,0.5]];portConstraint=eastwest;whiteSpace=wrap;html=1;" vertex="1" parent="tMLlRhtM2XEq-jiwOCAZ-42">
          <mxGeometry y="26" width="140" height="26" as="geometry" />
        </mxCell>
        <mxCell id="tMLlRhtM2XEq-jiwOCAZ-46" value="Turkey" style="swimlane;fontStyle=0;childLayout=stackLayout;horizontal=1;startSize=26;fillColor=none;horizontalStack=0;resizeParent=1;resizeParentMax=0;resizeLast=0;collapsible=1;marginBottom=0;whiteSpace=wrap;html=1;" vertex="1" parent="WIyWlLk6GJQsqaUBKTNV-1">
          <mxGeometry x="-743" y="-230" width="150" height="52" as="geometry" />
        </mxCell>
        <mxCell id="tMLlRhtM2XEq-jiwOCAZ-47" value="+ SpecificRequest(): void" style="text;strokeColor=none;fillColor=none;align=left;verticalAlign=top;spacingLeft=4;spacingRight=4;overflow=hidden;rotatable=0;points=[[0,0.5],[1,0.5]];portConstraint=eastwest;whiteSpace=wrap;html=1;" vertex="1" parent="tMLlRhtM2XEq-jiwOCAZ-46">
          <mxGeometry y="26" width="150" height="26" as="geometry" />
        </mxCell>
        <mxCell id="tMLlRhtM2XEq-jiwOCAZ-50" value="" style="endArrow=block;dashed=1;endFill=0;endSize=12;html=1;rounded=0;entryX=0.44;entryY=1.04;entryDx=0;entryDy=0;entryPerimeter=0;exitX=0.5;exitY=0;exitDx=0;exitDy=0;" edge="1" parent="WIyWlLk6GJQsqaUBKTNV-1" source="tMLlRhtM2XEq-jiwOCAZ-42" target="tMLlRhtM2XEq-jiwOCAZ-39">
          <mxGeometry width="160" relative="1" as="geometry">
            <mxPoint x="-889.4117647058823" y="-250" as="sourcePoint" />
            <mxPoint x="45" y="-188" as="targetPoint" />
          </mxGeometry>
        </mxCell>
        <mxCell id="tMLlRhtM2XEq-jiwOCAZ-51" value="implements" style="edgeLabel;html=1;align=center;verticalAlign=middle;resizable=0;points=[];" vertex="1" connectable="0" parent="tMLlRhtM2XEq-jiwOCAZ-50">
          <mxGeometry x="0.1404" y="-4" relative="1" as="geometry">
            <mxPoint as="offset" />
          </mxGeometry>
        </mxCell>
        <mxCell id="tMLlRhtM2XEq-jiwOCAZ-52" value="" style="html=1;verticalAlign=bottom;endArrow=block;curved=0;rounded=0;exitX=1;exitY=0.25;exitDx=0;exitDy=0;entryX=0;entryY=0.25;entryDx=0;entryDy=0;" edge="1" parent="WIyWlLk6GJQsqaUBKTNV-1" source="tMLlRhtM2XEq-jiwOCAZ-34" target="tMLlRhtM2XEq-jiwOCAZ-38">
          <mxGeometry x="-0.0003" width="80" relative="1" as="geometry">
            <mxPoint x="160" y="-265" as="sourcePoint" />
            <mxPoint x="359" y="-264" as="targetPoint" />
            <mxPoint as="offset" />
          </mxGeometry>
        </mxCell>
        <mxCell id="tMLlRhtM2XEq-jiwOCAZ-53" value="" style="html=1;verticalAlign=bottom;endArrow=block;curved=0;rounded=0;exitX=1;exitY=0.25;exitDx=0;exitDy=0;entryX=0;entryY=0.25;entryDx=0;entryDy=0;" edge="1" parent="WIyWlLk6GJQsqaUBKTNV-1" source="tMLlRhtM2XEq-jiwOCAZ-42" target="tMLlRhtM2XEq-jiwOCAZ-46">
          <mxGeometry x="-0.0003" width="80" relative="1" as="geometry">
            <mxPoint x="-1000" y="-350" as="sourcePoint" />
            <mxPoint x="-930" y="-353" as="targetPoint" />
            <mxPoint as="offset" />
          </mxGeometry>
        </mxCell>
        <mxCell id="tMLlRhtM2XEq-jiwOCAZ-54" value="&lt;i&gt;adapter&lt;/i&gt;" style="text;html=1;align=center;verticalAlign=middle;resizable=0;points=[];autosize=1;strokeColor=none;fillColor=none;" vertex="1" parent="WIyWlLk6GJQsqaUBKTNV-1">
          <mxGeometry x="-911" y="-408.5" width="60" height="30" as="geometry" />
        </mxCell>
        <mxCell id="tMLlRhtM2XEq-jiwOCAZ-55" value="&lt;i&gt;adaptee&lt;/i&gt;" style="text;html=1;align=center;verticalAlign=middle;resizable=0;points=[];autosize=1;strokeColor=none;fillColor=none;" vertex="1" parent="WIyWlLk6GJQsqaUBKTNV-1">
          <mxGeometry x="-703" y="-260" width="70" height="30" as="geometry" />
        </mxCell>
        <mxCell id="tMLlRhtM2XEq-jiwOCAZ-56" value="&lt;i&gt;the client thinks he&#39;s talking to a Duck&lt;/i&gt;&lt;div&gt;&lt;i&gt;he only sees the Duck interface&lt;/i&gt;&lt;/div&gt;" style="text;html=1;align=center;verticalAlign=middle;resizable=0;points=[];autosize=1;strokeColor=none;fillColor=none;" vertex="1" parent="WIyWlLk6GJQsqaUBKTNV-1">
          <mxGeometry x="-1224" y="-410.5" width="220" height="40" as="geometry" />
        </mxCell>
        <mxCell id="tMLlRhtM2XEq-jiwOCAZ-57" value="&lt;i&gt;all requests get delegated to the adaptee&lt;/i&gt;" style="text;html=1;align=center;verticalAlign=middle;resizable=0;points=[];autosize=1;strokeColor=none;fillColor=none;" vertex="1" parent="WIyWlLk6GJQsqaUBKTNV-1">
          <mxGeometry x="-790" y="-182" width="240" height="30" as="geometry" />
        </mxCell>
      </root>
    </mxGraphModel>
  </diagram>
</mxfile>
